<svg width="225" height="32" viewBox="0 0 225 32" fill="none" xmlns="http://www.w3.org/2000/svg">
<path d="M11.6252 31.8644C9.26393 31.8644 7.10194 31.2817 5.13927 30.1164C3.20727 28.9511 1.64327 27.3564 0.447266 25.3324L3.11527 23.3544C5.3846 26.8197 8.20594 28.5524 11.5792 28.5524C13.3886 28.5524 14.8606 28.0924 15.9952 27.1724C17.1299 26.2524 17.6972 25.0257 17.6972 23.4924C17.6972 22.6031 17.4979 21.8517 17.0992 21.2384C16.7006 20.6251 16.1486 20.1037 15.4432 19.6744C14.7686 19.2451 13.8332 18.7391 12.6372 18.1564L9.23323 16.5464C7.14794 15.5651 5.4766 14.4764 4.21927 13.2804C2.9926 12.0537 2.37927 10.4284 2.37927 8.40437C2.37927 6.84037 2.79327 5.46037 3.62127 4.26437C4.44927 3.06837 5.55327 2.14837 6.93327 1.50437C8.34394 0.829704 9.87722 0.492371 11.5332 0.492371C13.5572 0.492371 15.3972 0.967704 17.0532 1.91837C18.7399 2.86903 20.0739 4.11103 21.0552 5.64437L18.4332 7.62237C17.6052 6.3957 16.5779 5.46037 15.3512 4.81637C14.1552 4.1417 12.8672 3.80437 11.4872 3.80437C9.98463 3.80437 8.71194 4.1877 7.66927 4.95437C6.6266 5.72103 6.10527 6.8097 6.10527 8.22037C6.10527 9.07903 6.3046 9.81503 6.70327 10.4284C7.10194 11.0111 7.60794 11.5017 8.22127 11.9004C8.86527 12.2684 9.78522 12.7437 10.9812 13.3264L14.3392 14.9364C16.7312 16.1017 18.5099 17.3131 19.6752 18.5704C20.8406 19.8277 21.4232 21.4377 21.4232 23.4004C21.4232 25.0564 20.9939 26.5284 20.1352 27.8164C19.3072 29.1044 18.1419 30.1011 16.6392 30.8064C15.1672 31.5117 13.4959 31.8644 11.6252 31.8644ZM42.6576 4.21837H31.9856V0.99837H56.9636V4.21837H46.2456V31.3584H42.6576V4.21837ZM80.6102 31.8644C78.2488 31.8644 76.1481 31.3737 74.3081 30.3924C72.4988 29.4111 71.0728 27.9851 70.0301 26.1144C69.0181 24.2131 68.5121 21.9437 68.5121 19.3064V0.99837H72.1001V19.5364C72.1001 22.4804 72.8821 24.7191 74.4461 26.2524C76.0408 27.7857 78.0955 28.5524 80.6102 28.5524C83.0942 28.5524 85.1182 27.7857 86.6822 26.2524C88.2461 24.7191 89.0281 22.4804 89.0281 19.5364V0.99837H92.6161V19.3064C92.6161 21.9437 92.0948 24.2131 91.0522 26.1144C90.0402 27.9851 88.6142 29.4111 86.7742 30.3924C84.9648 31.3737 82.9101 31.8644 80.6102 31.8644ZM107.541 0.99837H116.557C119.931 0.99837 122.859 1.64237 125.343 2.93037C127.827 4.21837 129.729 6.01237 131.047 8.31237C132.397 10.5817 133.071 13.1884 133.071 16.1324C133.071 19.0457 132.397 21.6524 131.047 23.9524C129.729 26.2524 127.827 28.0617 125.343 29.3804C122.859 30.6991 119.931 31.3584 116.557 31.3584H107.541V0.99837ZM116.511 28.1384C119.149 28.1384 121.433 27.6171 123.365 26.5744C125.328 25.5317 126.815 24.1057 127.827 22.2964C128.839 20.4871 129.345 18.4324 129.345 16.1324C129.345 13.8017 128.839 11.7471 127.827 9.96837C126.815 8.15903 125.343 6.74837 123.411 5.73637C121.479 4.72437 119.179 4.21837 116.511 4.21837H111.129V28.1384H116.511ZM146.381 0.99837H149.969V31.3584H146.381V0.99837ZM183.677 25.1944H168.773L166.197 31.3584H162.425L175.581 0.492371H176.915L190.071 31.3584H186.253L183.677 25.1944ZM176.225 7.02437L170.153 21.9744H182.297L176.225 7.02437ZM224.6 0.99837V2.05637L209.236 31.3584H205.326L219.77 4.21837H204.314V0.99837H224.6Z" fill="black"/>
</svg>
